<svg width="12" height="12" viewBox="0 0 12 12" fill="none" xmlns="http://www.w3.org/2000/svg">
<path d="M1.33341 10.6667H2.06541L9.19741 3.53467L8.46542 2.80267L1.33341 9.93467V10.6667ZM0.666748 11.3333V9.65333L9.45341 0.858667C9.52186 0.797778 9.59741 0.750667 9.68008 0.717334C9.76275 0.684 9.84875 0.667334 9.93808 0.667334C10.0279 0.667334 10.1145 0.681334 10.1981 0.709334C10.2825 0.737778 10.3603 0.788889 10.4314 0.862667L11.1421 1.57733C11.2159 1.64844 11.2661 1.72622 11.2927 1.81067C11.3199 1.89556 11.3334 1.98044 11.3334 2.06533C11.3334 2.15556 11.3181 2.242 11.2874 2.32467C11.2572 2.40689 11.2087 2.48222 11.1421 2.55067L2.34675 11.3333H0.666748ZM8.82475 3.17467L8.46542 2.80267L9.19741 3.53467L8.82475 3.17467Z" fill="#080808"/>
</svg>
