<svg width="10" height="12" viewBox="0 0 10 12" fill="none" xmlns="http://www.w3.org/2000/svg">
<path d="M2.07659 11.3333C1.77881 11.3333 1.52481 11.2284 1.31459 11.0187C1.10481 10.8089 0.999919 10.5549 0.999919 10.2567V2H0.333252V1.33333H2.99992V0.82H6.99992V1.33333H9.66658V2H8.99992V10.2567C8.99992 10.5633 8.89725 10.8193 8.69192 11.0247C8.48614 11.2304 8.22992 11.3333 7.92325 11.3333H2.07659ZM8.33325 2H1.66659V10.2567C1.66659 10.3762 1.70503 10.4744 1.78192 10.5513C1.85881 10.6282 1.95703 10.6667 2.07659 10.6667H7.92325C8.02547 10.6667 8.11947 10.624 8.20525 10.5387C8.29059 10.4529 8.33325 10.3589 8.33325 10.2567V2ZM3.53858 9.33333H4.20525V3.33333H3.53858V9.33333ZM5.79459 9.33333H6.46125V3.33333H5.79459V9.33333Z" fill="#080808"/>
</svg>
